<?xml version="1.0" standalone="no"?>
<!DOCTYPE svg PUBLIC "-//W3C//DTD SVG 20010904//EN"
 "http://www.w3.org/TR/2001/REC-SVG-20010904/DTD/svg10.dtd">
<svg version="1.0" xmlns="http://www.w3.org/2000/svg"
 width="800.000000pt" height="800.000000pt" viewBox="0 0 800.000000 800.000000"
 preserveAspectRatio="xMidYMid meet">

<g transform="translate(0.000000,800.000000) scale(0.100000,-0.100000)"
fill="#000000" stroke="none">
<path d="M895 7743 c-152 -21 -314 -103 -425 -213 -88 -88 -162 -216 -197
-340 -17 -62 -18 -193 -18 -3190 0 -2996 1 -3128 18 -3189 44 -155 149 -315
264 -402 78 -59 188 -113 276 -136 69 -17 189 -18 3192 -18 2984 0 3123 1
3185 18 121 34 254 111 340 197 86 86 163 219 197 340 17 62 18 201 18 3185 0
3003 -1 3123 -18 3192 -66 256 -266 458 -532 539 -57 18 -194 19 -3165 20
-1708 1 -3118 -1 -3135 -3z m5970 -508 c95 -25 165 -64 230 -129 77 -77 111
-136 136 -234 19 -75 19 -118 17 -1677 -3 -1593 -3 -1600 -23 -1597 -11 1
-164 5 -340 9 -314 6 -537 -4 -643 -28 -25 -5 -46 -8 -49 -6 -2 2 6 42 17 88
52 216 78 570 61 810 -29 398 -139 679 -353 901 l-71 73 13 70 c18 104 25 379
11 474 -14 93 -50 237 -75 296 -44 104 -36 96 -91 89 -263 -30 -532 -133 -792
-302 l-112 -73 -113 20 c-384 68 -847 83 -1198 41 -94 -12 -304 -53 -391 -76
l-56 -16 -129 78 c-323 193 -587 295 -834 320 l-65 6 -33 -88 c-92 -252 -123
-517 -80 -704 5 -25 21 -82 35 -127 l25 -82 -55 -68 c-222 -276 -314 -526
-326 -888 -11 -331 13 -536 94 -799 l15 -48 -68 6 c-37 3 -191 8 -342 12 -223
5 -298 3 -395 -10 -65 -9 -123 -16 -127 -16 -13 0 -10 3230 3 3292 37 179 193
340 372 384 41 10 651 12 2862 13 2493 1 2818 -1 2870 -14z m140 -3665 c88 -5
179 -12 203 -16 l42 -7 0 -114 c0 -104 -2 -114 -17 -109 -165 47 -689 93 -947
81 -151 -6 -158 -6 -151 12 4 10 14 38 22 63 9 25 18 48 22 52 3 4 87 14 186
23 163 14 223 17 420 23 33 1 132 -3 220 -8z m-5446 -37 l143 -6 29 -65 c16
-35 29 -68 29 -72 0 -4 -53 -6 -119 -3 -240 11 -759 -38 -877 -84 -13 -5 -14
11 -12 108 l3 114 65 6 c96 8 573 10 739 2z m5083 -174 c155 -10 361 -36 521
-65 l87 -16 0 -1037 c0 -1002 -1 -1040 -20 -1115 -46 -181 -175 -310 -355
-356 -75 -19 -111 -20 -981 -20 l-902 0 -21 35 c-11 19 -25 52 -30 72 -5 21
-15 301 -21 623 -13 652 -19 711 -82 837 -27 56 -49 80 -128 147 -52 44 -94
83 -93 86 2 3 24 6 50 8 137 7 487 69 623 109 342 102 659 355 796 635 l28 57
50 4 c115 8 334 6 478 -4z m-4823 -75 c94 -161 197 -265 376 -382 262 -171
598 -286 990 -338 72 -9 131 -18 133 -19 1 -1 -31 -35 -71 -76 -82 -84 -160
-220 -172 -302 l-6 -49 -83 -39 c-101 -49 -201 -68 -352 -69 -128 0 -213 23
-308 84 -88 56 -120 90 -241 251 -173 232 -264 303 -432 341 -92 20 -194 15
-223 -11 -51 -47 -12 -105 146 -216 151 -107 169 -131 329 -457 41 -84 89
-172 107 -195 79 -104 237 -207 373 -242 33 -9 118 -21 188 -27 133 -12 238
-5 387 26 36 8 66 13 67 12 1 -1 5 -164 9 -361 l7 -360 -27 -52 -26 -53 -894
0 c-860 0 -896 1 -971 20 -43 11 -99 32 -124 47 -66 38 -162 139 -193 203 -60
121 -58 79 -58 1210 l0 1035 187 29 c287 44 410 54 637 53 l210 -2 35 -61z
m-128 -634 c42 -23 8 -90 -46 -90 -11 0 -31 7 -43 16 -60 42 22 110 89 74z
m179 -110 c29 -29 24 -47 -18 -69 -36 -19 -102 7 -102 40 0 20 41 49 70 49 17
0 39 -9 50 -20z m114 -126 c20 -20 20 -33 -1 -56 -18 -20 -64 -24 -94 -8 -21
12 -25 50 -7 68 17 17 84 15 102 -4z m97 -145 c18 -18 19 -23 6 -42 -20 -30
-93 -31 -113 -2 -34 52 60 91 107 44z m100 -129 c21 -12 26 -52 7 -68 -25 -20
-80 -18 -102 4 -21 20 -20 30 4 54 22 22 60 26 91 10z m1849 -182 c0 -57 3
-352 7 -655 l6 -553 -62 0 -61 0 0 648 c0 357 3 652 7 655 3 4 28 7 55 7 l48
0 0 -102z m-1716 71 c33 -15 40 -37 21 -65 -12 -18 -25 -24 -54 -24 -21 0 -44
6 -51 14 -18 22 -8 59 20 73 31 16 33 16 64 2z m1206 -644 l0 -635 -66 0 -66
0 7 48 c16 95 20 324 12 647 -8 295 -7 337 8 393 15 54 85 182 100 182 3 0 5
-286 5 -635z m938 592 c37 -39 74 -135 83 -215 5 -43 10 -288 11 -545 l3 -468
-55 3 -55 3 -6 235 c-15 555 -20 1010 -11 1010 4 0 18 -10 30 -23z m-1500 -3
c40 -28 25 -65 -31 -79 -32 -8 -77 16 -77 42 0 46 64 68 108 37z m-414 -40
c36 -35 9 -78 -49 -78 -18 0 -40 6 -49 13 -21 18 -20 57 2 70 26 16 79 13 96
-5z m214 4 c18 -18 14 -56 -7 -68 -29 -15 -72 -12 -93 7 -22 20 -23 31 -1 55
19 21 82 25 101 6z"/>
</g>
</svg>
