<?xml version="1.0" standalone="no"?>
<!DOCTYPE svg PUBLIC "-//W3C//DTD SVG 20010904//EN"
 "http://www.w3.org/TR/2001/REC-SVG-20010904/DTD/svg10.dtd">
<svg version="1.0" xmlns="http://www.w3.org/2000/svg"
 width="282.000000pt" height="312.000000pt" viewBox="0 0 282.000000 312.000000"
 preserveAspectRatio="xMidYMid meet">

<g transform="translate(0.000000,312.000000) scale(0.100000,-0.100000)"
fill="#000000" stroke="none">
<path d="M1288 3104 c-136 -32 -238 -116 -303 -247 -26 -53 -40 -96 -44 -138
l-6 -62 -123 -62 c-218 -111 -386 -259 -518 -456 -152 -228 -224 -466 -224
-744 0 -252 62 -483 185 -684 19 -32 35 -61 35 -64 0 -3 -63 -7 -139 -9 -134
-3 -170 -10 -143 -27 46 -28 2780 -26 2808 2 19 18 -29 27 -153 27 -73 0 -133
3 -133 6 0 4 16 33 35 65 123 202 185 431 185 684 0 368 -134 691 -394 950
-112 111 -223 190 -366 259 l-95 47 -6 77 c-14 182 -149 332 -340 377 -78 18
-185 18 -261 -1z m345 -67 c89 -44 147 -103 188 -191 40 -86 45 -140 23 -276
-10 -64 -17 -152 -15 -198 3 -108 -15 -247 -46 -347 -30 -94 -43 -121 -79
-164 -25 -30 -27 -30 -39 -14 -13 17 -14 16 -24 -10 -6 -16 -11 -32 -11 -36 0
-4 -13 -28 -30 -54 -49 -77 -110 -84 -145 -17 -23 45 -58 41 -90 -10 -51 -80
-118 -37 -174 113 -10 26 -31 38 -31 17 0 -22 -20 -8 -53 38 -67 92 -102 256
-95 437 4 94 2 124 -19 205 -34 131 -29 201 19 302 45 94 100 155 177 196 82
44 120 52 253 49 111 -3 119 -5 191 -40z m-679 -539 c8 -13 18 -36 22 -52 6
-27 6 -28 -16 -16 -29 16 -34 8 -20 -34 6 -20 10 -42 7 -49 -2 -6 1 -19 8 -27
15 -18 29 -154 15 -145 -5 3 -12 22 -16 42 -4 20 -16 52 -27 71 -35 60 -33
232 3 232 5 0 16 -10 24 -22z m970 0 c15 -56 6 -153 -19 -206 -14 -30 -25 -61
-25 -70 0 -10 -5 -24 -11 -32 -8 -11 -9 2 -5 49 3 36 12 72 20 80 7 9 13 23
13 31 0 8 3 32 7 53 7 37 6 37 -18 31 -30 -7 -32 2 -12 51 17 40 41 46 50 13z
m-782 -730 c41 -50 41 -51 11 -30 -32 23 -63 59 -63 74 0 15 8 8 52 -44z m568
-10 c-32 -26 -37 -14 -9 20 18 22 25 25 28 13 2 -8 -7 -23 -19 -33z m-520 -91
c30 -13 79 -35 108 -48 28 -12 52 -29 52 -36 0 -7 -4 -13 -8 -13 -5 0 -30 -27
-58 -60 -27 -33 -53 -60 -59 -60 -18 0 -106 109 -116 143 -17 61 -10 114 15
103 6 -3 36 -16 66 -29z m528 -25 c3 -50 0 -58 -38 -107 -67 -87 -62 -87 -135
-14 -36 35 -65 67 -65 70 0 4 16 10 35 13 19 4 49 19 67 34 38 32 97 61 118
59 11 -2 16 -17 18 -55z m-753 -33 c-36 -34 -82 -88 -102 -120 -35 -58 -53
-73 -53 -45 0 24 91 137 148 183 78 64 83 52 7 -18z m-160 -68 c-6 -5 -48 -25
-95 -46 -119 -53 -279 -134 -314 -158 -15 -11 -34 -34 -41 -51 l-13 -31 -7 28
c-10 39 10 58 124 113 87 43 339 153 351 154 2 0 0 -4 -5 -9z m907 -118 l-4
-63 -61 0 c-71 0 -96 10 -74 29 8 6 21 9 30 5 17 -6 47 22 79 74 11 19 24 30
27 25 4 -4 5 -36 3 -70z m-542 11 c29 -38 39 -45 65 -42 22 2 31 -2 33 -14 3
-16 -5 -18 -67 -18 l-71 0 0 38 c0 20 -3 47 -6 60 -10 35 9 26 46 -24z m740
-129 c189 -23 339 -51 357 -67 20 -16 16 -54 -33 -355 l-37 -233 -779 0 c-428
0 -778 2 -778 4 0 2 -18 127 -40 277 -30 197 -38 280 -31 296 11 25 44 33 253
63 241 35 312 38 638 35 219 -2 356 -8 450 -20z"/>
<path d="M1115 2414 c-52 -27 -49 -32 18 -27 45 4 79 1 115 -11 48 -16 92 -15
92 3 0 11 -130 51 -165 51 -16 0 -43 -7 -60 -16z"/>
<path d="M1561 2410 c-70 -25 -82 -37 -47 -46 17 -4 44 0 73 11 33 13 63 16
109 12 69 -5 75 5 18 29 -45 19 -88 17 -153 -6z"/>
<path d="M1132 2327 c-58 -18 -22 -44 65 -46 23 -1 43 -6 45 -12 3 -9 14 -9
41 0 32 11 36 15 26 28 -34 40 -107 53 -177 30z m53 -17 c3 -5 -1 -10 -9 -10
-9 0 -16 5 -16 10 0 6 4 10 9 10 6 0 13 -4 16 -10z m80 1 c3 -5 1 -12 -5 -16
-5 -3 -10 1 -10 9 0 18 6 21 15 7z"/>
<path d="M1553 2320 c-18 -11 -33 -24 -33 -30 0 -18 52 -32 75 -21 11 5 42 12
68 15 27 3 56 10 65 15 14 8 11 12 -20 25 -51 22 -116 20 -155 -4z m27 -16 c0
-8 -5 -12 -10 -9 -6 4 -8 11 -5 16 9 14 15 11 15 -7z m95 6 c-3 -5 -10 -10
-16 -10 -5 0 -9 5 -9 10 0 6 7 10 16 10 8 0 12 -4 9 -10z"/>
<path d="M1362 2201 c2 -49 6 -87 9 -85 13 7 19 67 13 120 -11 86 -25 62 -22
-35z"/>
<path d="M1287 2083 c-23 -22 9 -83 44 -83 9 0 24 -7 35 -15 10 -8 30 -14 44
-15 28 0 109 26 127 42 15 12 17 68 3 68 -5 0 -10 -6 -10 -13 0 -20 -29 -42
-78 -57 -38 -12 -46 -12 -72 3 -15 9 -35 17 -45 17 -9 0 -22 14 -29 30 -7 17
-15 27 -19 23z"/>
<path d="M1210 2031 c-46 -25 -67 -49 -75 -86 -6 -29 -5 -28 15 7 11 21 33 44
48 52 16 8 34 22 41 30 17 20 14 20 -29 -3z"/>
<path d="M1570 2045 c0 -2 20 -18 45 -35 25 -17 52 -46 59 -63 9 -21 15 -26
15 -14 2 33 -27 72 -69 95 -43 23 -50 25 -50 17z"/>
<path d="M1309 1919 c-32 -15 -40 -15 -57 -3 -15 10 -23 11 -28 3 -7 -12 12
-28 36 -29 29 -2 305 -2 320 -1 24 2 43 18 36 30 -5 7 -12 7 -26 -1 -15 -10
-27 -9 -57 1 -56 21 -178 20 -224 0z"/>
<path d="M1322 1843 c5 -7 19 -15 29 -18 14 -5 17 -10 10 -18 -7 -9 7 -12 54
-12 46 0 61 3 58 13 -3 6 1 12 9 12 8 0 22 8 31 18 15 16 10 17 -93 17 -84 0
-106 -3 -98 -12z"/>
<path d="M1375 1016 c-35 -16 -70 -52 -79 -83 -9 -29 17 -88 47 -108 68 -44
143 -37 195 19 52 57 36 128 -38 166 -45 23 -82 25 -125 6z m105 -31 c57 -29
65 -81 21 -126 -71 -71 -196 -5 -160 84 12 29 56 56 92 57 10 0 31 -7 47 -15z"/>
<path d="M275 496 c-61 -27 -95 -90 -95 -175 0 -57 30 -124 64 -146 26 -17
113 -24 135 -11 7 4 11 43 11 97 l0 89 -45 0 c-41 0 -45 -2 -45 -25 0 -16 6
-25 15 -25 11 0 15 -12 15 -45 0 -41 -2 -45 -25 -45 -43 0 -62 54 -57 158 3
45 41 82 86 82 27 0 36 5 41 21 12 38 -41 51 -100 25z"/>
<path d="M673 486 c-39 -33 -55 -80 -55 -161 1 -89 28 -149 76 -165 28 -9 41
-9 62 2 51 25 69 62 73 150 5 129 -20 183 -91 194 -27 5 -40 1 -65 -20z m86
-68 c14 -40 14 -136 0 -177 -15 -43 -53 -43 -68 0 -14 41 -14 139 0 176 19 51
51 52 68 1z"/>
<path d="M1015 498 c-13 -37 -73 -334 -69 -340 8 -13 54 -9 58 5 18 66 22 72
50 72 25 0 31 -5 40 -40 9 -33 17 -41 39 -43 35 -4 35 -2 -4 198 l-31 160 -40
0 c-22 0 -41 -5 -43 -12z m59 -170 c7 -36 5 -38 -19 -38 -29 0 -28 -5 -13 79
13 72 12 72 32 -41z"/>
<path d="M1260 492 c-88 -48 -106 -220 -32 -303 21 -24 38 -32 72 -35 25 -3
50 -1 57 3 20 14 4 53 -21 53 -35 0 -65 28 -76 71 -22 82 14 169 70 169 29 0
49 28 35 50 -10 16 -67 12 -105 -8z"/>
<path d="M1465 498 c-5 -14 -75 -333 -75 -342 0 -12 61 -6 64 7 18 67 22 72
51 72 27 0 30 -4 38 -42 7 -39 11 -43 38 -43 20 0 29 5 29 16 0 9 -14 90 -31
180 l-32 164 -39 0 c-22 0 -41 -5 -43 -12z m58 -170 c5 -35 4 -38 -19 -38 -28
0 -27 -5 -12 79 11 63 12 64 19 31 3 -19 9 -52 12 -72z"/>
<path d="M1667 503 c-4 -3 -7 -85 -7 -181 l0 -175 60 6 c110 10 145 54 145
182 0 96 -19 139 -70 161 -35 14 -116 19 -128 7z m120 -92 c11 -25 14 -55 10
-99 -5 -67 -25 -102 -59 -102 -16 0 -18 10 -18 118 0 65 3 121 6 124 14 14 48
-8 61 -41z"/>
<path d="M1914 497 c-2 -7 -3 -87 -2 -177 l3 -165 78 -3 77 -3 0 30 c0 28 -3
30 -42 33 l-43 3 -3 48 -3 47 40 0 c39 0 41 2 41 30 0 28 -2 30 -40 30 l-40 0
0 40 0 40 45 0 c43 0 45 1 45 30 l0 30 -75 0 c-53 0 -77 -4 -81 -13z"/>
<path d="M2135 498 c-2 -7 -6 -58 -9 -113 -4 -55 -9 -131 -13 -168 l-6 -69 29
4 c27 3 29 6 31 48 4 75 16 176 19 165 1 -5 12 -54 24 -107 20 -90 23 -98 45
-98 26 0 28 5 59 139 8 34 17 66 20 69 3 3 6 -39 6 -94 0 -54 4 -105 9 -112 4
-8 19 -12 31 -10 22 3 23 6 21 78 -2 41 -6 120 -10 175 l-6 100 -36 3 -36 3
-22 -101 c-11 -55 -21 -110 -21 -122 0 -47 -18 2 -40 110 l-23 112 -34 0 c-18
0 -35 -6 -38 -12z"/>
<path d="M2420 506 c0 -2 18 -55 40 -116 31 -86 40 -126 40 -176 l0 -64 30 0
30 0 0 66 c0 53 8 89 40 175 22 60 40 111 40 114 0 3 -15 5 -34 5 l-34 0 -18
-76 c-20 -83 -21 -82 -49 19 -15 55 -17 57 -50 57 -19 0 -35 -2 -35 -4z"/>
<path d="M450 330 l0 -170 75 0 c73 0 75 1 75 25 0 23 -4 25 -45 25 l-45 0 0
145 0 145 -30 0 -30 0 0 -170z"/>
<path d="M563 51 c-214 -6 -257 -10 -240 -27 22 -23 1929 -29 2120 -8 64 8 74
19 25 28 -48 8 -1632 15 -1905 7z"/>
</g>
</svg>
